<svg width="2000" height="720" viewBox="0 0 2000 720" fill="none" xmlns="http://www.w3.org/2000/svg" role="img" aria-labelledby="title desc">
  <title id="title">1099desk Deskline Cipher Primary Logo</title>
  <desc id="desc">A championship-level premium identity for 1099desk using a custom 1099 deskline cipher.</desc>
  <rect width="2000" height="720" rx="72" fill="#07110F"/>
  <path d="M98 98H1902V622H98V98Z" stroke="#18312D" stroke-width="2"/>
  <path d="M142 142H1858V578H142V142Z" stroke="#0D1B18" stroke-width="1"/>

  <g transform="translate(190 150)">
    <rect x="0" y="0" width="420" height="420" rx="96" fill="#F8FAFC"/>
    <text x="54" y="214" fill="#07110F" font-family="Inter, Arial, Helvetica, sans-serif" font-size="126" font-weight="920" letter-spacing="-10">1099</text>
    <path d="M74 258H344" stroke="#8EA4B2" stroke-width="20" stroke-linecap="round"/>
    <path d="M74 294H248" stroke="#5EEAD4" stroke-width="10" stroke-linecap="round"/>
    <path d="M284 112H350" stroke="#2563EB" stroke-width="13" stroke-linecap="round"/>
    <path d="M48 48H372V372H48V48Z" stroke="#DBE3E6" stroke-width="2"/>
  </g>

  <g transform="translate(720 222)">
    <text x="0" y="130" fill="#F8FAFC" font-family="Inter, Arial, Helvetica, sans-serif" font-size="156" font-weight="860" letter-spacing="-7">1099desk</text>
    <path d="M10 174H606" stroke="#5EEAD4" stroke-width="3"/>
    <text x="4" y="232" fill="#8EA4B2" font-family="Inter, Arial, Helvetica, sans-serif" font-size="32" font-weight="760" letter-spacing="7">FREELANCE FINANCE SUITE</text>
  </g>

  <g transform="translate(1670 232)">
    <rect width="190" height="190" rx="44" stroke="#18312D" stroke-width="2"/>
    <path d="M51 69H139" stroke="#5EEAD4" stroke-width="10" stroke-linecap="round"/>
    <path d="M51 96H122" stroke="#2563EB" stroke-width="10" stroke-linecap="round"/>
    <path d="M51 123H104" stroke="#8EA4B2" stroke-width="10" stroke-linecap="round"/>
  </g>
</svg>
